<svg width="128" height="128" viewBox="0 0 128 128" fill="none" xmlns="http://www.w3.org/2000/svg">
<path d="M40.5 71L66 70C70.4 69.6615 79 67.359 82 67C102 64.6068 109.667 77.8333 110.5 85.5C102.167 86 85.5 84.5 76 85.5C68.3481 86.3055 34.3333 86 19 87C23.8 75.4 35.3333 71.5 40.5 71Z" fill="#711023" stroke="#711023"/>
<path d="M88.5 65C72.5 65.8 67.5 54.3333 67 48.5H66L113 41.5C111.5 49 104.5 64.2 88.5 65Z" fill="white"/>
<path d="M88.1703 58.4206C76.6099 60.2855 73.8396 51.4132 73.8995 46.7439L94.3369 43.7757C97.3832 54.5088 91.4951 58.0111 88.1703 58.4206Z" fill="#731527"/>
<path d="M38.5 65C53.3 67 59.3333 54.8333 60.5 48.5L15 43.5C15.5 48.5 20 62.5 38.5 65Z" fill="white"/>
<path d="M39.6583 59.3902C28.0076 58.2142 27.6163 48.9277 28.8769 44.4315L49.3893 46.828C49.5679 57.9837 42.9764 59.851 39.6583 59.3902Z" fill="#731527"/>
<path d="M65 47.5L8 42.5L65 49.5L114.5 41L65 47.5Z" fill="#7F0512" stroke="#7F0512"/>
<path d="M94 76.7429L97 68.7429C91 64.7429 74.5 68.7429 70 69.7429C65.5 70.7429 46.5 71.7429 40 71.2429C34.8 70.8429 29.1667 74.7429 27 76.7429L28.5 78.2429H36.5L32 87.2429L97 85.2429L94 76.7429Z" fill="white"/>
<path d="M77 76H98.5319L100 78L77 76Z" fill="#731527" stroke="#731527" stroke-width="0.3"/>
</svg>
