<svg width="128" height="128" viewBox="0 0 128 128" fill="none" xmlns="http://www.w3.org/2000/svg">
<path d="M81.8028 93.2444C78.4025 92.9352 72.9156 95.1764 70.5972 96.3356L72.5292 102.518C74.4612 104.965 80.0254 110.478 86.8261 112.951C93.6267 115.424 96.8725 112.951 97.6453 111.405C95.1723 111.096 93.0085 108.443 92.2357 107.155C102.437 109.628 107.821 103.806 109.237 100.586H103.055C97.2589 101.359 86.0533 93.6308 81.8028 93.2444Z" fill="#F35BA4"/>
<path d="M52.8226 104.064L56.3003 90.926L72.5291 89.3804L74.8476 104.064H52.8226Z" fill="#F35BA4"/>
<path d="M66.3467 93.2444C30.1795 95.7173 20.1072 65.4234 19.592 49.9673C34.2753 43.3985 68.0469 29.2562 85.6668 25.2376C103.287 21.219 107.949 27.9424 108.078 31.8064C112.406 84.9754 82.0604 94.9188 66.3467 93.2444Z" fill="#A0D06D"/>
<path d="M74.4612 73.5379C69.5152 71.6831 63.3843 75.0835 60.9371 77.0155C59.7006 70.5239 64.2859 67.8706 66.7331 67.3554C71.3699 66.7372 73.8172 71.2194 74.4612 73.5379Z" fill="black" stroke="#A36E76" stroke-width="0.386402"/>
<path d="M72.1427 69.6401C69.0515 72.7651 63.8995 72.917 61.3235 72.3787C62.0963 70.0602 62.856 68.7943 66.3467 67.6214C69.1894 66.6661 71.3699 68.5146 72.1427 69.6401Z" fill="white"/>
<path d="M45.8674 39.9209C50.8906 44.5577 55.5275 45.7169 57.4595 45.7169V48.0353H55.1411C47.7994 46.8761 42.0034 38.7617 38.5258 37.6025C34.5913 36.291 30.5401 38.3753 28.8657 39.9209C29.3809 39.1481 30.7977 37.2933 32.3433 36.0568C34.2754 34.5112 39.831 34.3488 45.8674 39.9209Z" fill="#0A4438"/>
<path d="M76.3932 58.4682C80.5148 56.021 90.1491 51.9766 95.7133 55.377C94.0389 50.9977 87.8307 45.4851 76.3932 58.4682Z" fill="#0A4438"/>
<path d="M106.146 42.2393C102.437 48.4217 96.0997 51.5129 93.3949 52.2857L94.1677 52.6721C111.169 45.7169 112.715 36.4433 111.556 35.284C110.397 34.1248 110.783 34.5112 106.146 42.2393Z" fill="#0A4438"/>
<path d="M111.386 44.6943C106.332 50.6317 98.0719 53.3135 94.5734 53.9123L95.5426 54.3477C117.638 48.489 120.078 39.3259 118.654 38.0939C117.229 36.862 117.704 37.2726 111.386 44.6943Z" fill="#0A4438"/>
<path d="M80.2572 46.8761C74.693 47.4944 72.0139 46.6185 71.3699 46.1033C71.3699 47.3398 72.6579 48.1641 73.3019 48.4217C76.522 49.0657 83.7374 48.8844 88.758 46.8761C94.5541 44.5577 98.1605 44.1713 99.9637 44.5577C99.7061 44.1713 98.8045 42.6257 96.4861 42.6257C93.673 42.6257 87.2124 46.1033 80.2572 46.8761Z" fill="#0A4438"/>
<path d="M53.9819 57.309C53.3637 65.6553 47.0267 66.969 43.9355 66.5826C38.1395 66.5826 31.5705 64.6506 30.4113 56.1498C29.4839 49.3491 36.5938 45.3305 40.8443 45.3305C45.8674 45.3305 54.6002 48.9627 53.9819 57.309Z" fill="white"/>
<path d="M40.4578 45.7169C34.552 45.7169 31.0553 51.3841 30.0249 54.6042C30.4113 51.2553 33.2707 44.635 41.617 44.9441C49.9633 45.2532 53.209 50.8689 53.5954 53.445C51.277 48.8081 47.7994 45.7169 40.4578 45.7169Z" fill="#0A4438"/>
<circle cx="43.1626" cy="56.9226" r="7.34164" fill="#044937"/>
<path d="M19.2054 40.3073C21.5239 43.3985 29.123 47.0049 33.5022 48.0353L32.7294 48.8081C18.4325 44.5577 19.2055 43.3985 17.2734 41.8529C15.9932 40.8288 14.1352 36.3301 14.9549 36.0569C16.1143 35.6705 17.2935 37.7583 19.2054 40.3073Z" fill="#044937"/>
<path d="M13.5055 42.9187C16.3725 46.4654 25.769 50.6032 31.1841 51.7855L30.2285 52.6721C12.5498 47.7954 13.5056 46.4654 11.1165 44.692C9.53354 43.5171 7.23606 38.3554 8.24964 38.0419C9.68321 37.5986 11.1413 39.9941 13.5055 42.9187Z" fill="#044937"/>
</svg>
