<svg width="128" height="128" viewBox="0 0 128 128" fill="none" xmlns="http://www.w3.org/2000/svg">
<path d="M26.0893 128C28.7036 111.567 26.4524 86.2083 25 75.5833L32.0804 54.3333L72.3839 43L86 66.375V111.708V128H26.0893Z" fill="#151C44"/>
<path d="M50.5 33.2536C49.3 29.6536 43.6667 29.7536 41 30.2536L39 35.7537C43.3333 36.4203 51.7 36.8536 50.5 33.2536Z" fill="#151C44"/>
<path d="M98.0106 83C97.6508 81 106.556 76.1667 111.053 74C113.212 74 112.75 85.1667 113.5 87.5L102 90.5C101.85 88.6667 98.3704 85 98.0106 83Z" fill="#192352"/>
<path d="M37 33.5L39 74.5C52.5 80.5 51 74.5 74 71C92.4 68.2 100.333 79.1667 102 85C104.8 85 108.167 80.3333 109.5 78C99.5 34 57 30 37 33.5Z" fill="#4F517C"/>
<path d="M66.5 98.5C64.5 98.9 53 74.3333 47.5 62C48 62 60 53 65 54.5L69.5 95.5C69.3333 96.3333 69 98 66.5 98.5Z" fill="#4F517C" stroke="#313257"/>
<path d="M41.628 55.3555C41.128 49.8555 40.428 38.4555 41.628 36.8555C44.4613 39.8555 48.428 47.7555 41.628 55.3555Z" fill="white"/>
<path d="M43.6 74.5C43.1472 70.3378 42.5133 61.7108 43.6 60.5C46.1657 62.7703 49.7577 68.7486 43.6 74.5Z" fill="white"/>
<path d="M44.4118 32.016C43.5647 33.2256 39.8235 34.2 38.0588 34.536L39.6471 74.856L46 93C41.7647 90.144 32.1294 83.5248 27.4706 79.896C22.8118 76.2672 19.8824 69.648 19 66.792V46.632C22.3882 34.9392 36.3235 30.672 42.5 30C43.7353 30.168 45.2588 30.8064 44.4118 32.016Z" fill="#151C44"/>
<rect x="47" y="52" width="22" height="11" fill="#4F517C"/>
<path d="M39.6667 51L39 44C39.6667 44 43 44.6364 43 47.1818C43 49.2182 40.7778 50.5758 39.6667 51Z" fill="#8196C2"/>
<path d="M40.3333 50L40 46C40.3333 46 42 46.3636 42 47.8182C42 48.9818 40.8889 49.7576 40.3333 50Z" fill="#151C44"/>
<path d="M89.9757 70.3988C87.5514 67.9899 88.7943 64.4739 91.7499 61.7326C92.7488 60.5525 95.6953 59.5113 97.5608 61.2491C99.4263 62.9869 94.8971 64.3963 93.4512 66.6678C92.0054 68.9392 92.1331 72.5425 89.9757 70.3988Z" fill="black"/>
<rect x="39" y="43" width="2" height="8" fill="#4F517C"/>
<path d="M41.6667 72L41 65C41.6667 65 45 65.6364 45 68.1818C45 70.2182 42.7778 71.5758 41.6667 72Z" fill="#8196C2"/>
<path d="M42.3333 71L42 67C42.3333 67 44 67.3636 44 68.8182C44 69.9818 42.8889 70.7576 42.3333 71Z" fill="#151C44"/>
<rect x="41" y="64" width="2" height="8" fill="#4F517C"/>
</svg>
