<svg width="128" height="128" viewBox="0 0 128 128" fill="none" xmlns="http://www.w3.org/2000/svg">
<path d="M109.968 46.5335L111.466 46.6125L109.968 46.5335ZM93.357 46.5335L94.6637 47.27L93.357 46.5335ZM100.396 52.2053C99.5857 52.0313 98.788 52.5468 98.614 53.3568C98.4399 54.1667 98.9554 54.9644 99.7654 55.1384L100.396 52.2053ZM73.3188 36.1441C74.9002 33.2262 77.8948 28.9865 81.6756 25.8108C85.4775 22.6176 89.7986 20.7163 94.1788 21.8144L94.9082 18.9044C89.1636 17.4643 83.8609 20.0576 79.7462 23.5136C75.6104 26.9873 72.3956 31.5516 70.6812 34.7146L73.3188 36.1441ZM94.1788 21.8144C99.9127 23.2517 103.572 27.4852 105.78 32.4355C107.996 37.4039 108.657 42.914 108.47 46.4545L111.466 46.6125C111.675 42.6552 110.951 36.6645 108.52 31.2135C106.081 25.7443 101.83 20.6396 94.9082 18.9044L94.1788 21.8144ZM108.47 46.4545C108.245 50.7288 107.753 54.3048 106.485 56.7912C105.869 57.9997 105.092 58.9013 104.109 59.5104C103.127 60.119 101.834 60.5 100.08 60.5V63.5C102.282 63.5 104.146 63.0163 105.689 62.0607C107.231 61.1056 108.347 59.7435 109.158 58.154C110.743 55.0444 111.24 50.8871 111.466 46.6125L108.47 46.4545ZM100.08 60.5C98.5031 60.5 95.9719 59.2519 94.4153 56.8673C92.9494 54.6216 92.3607 51.3557 94.6637 47.27L92.0503 45.7969C89.2118 50.8325 89.8096 55.2999 91.9032 58.5071C93.9061 61.5755 97.3074 63.5 100.08 63.5V60.5ZM94.6637 47.27C96.5439 43.9344 98.393 43.31 99.6616 43.3801C101.103 43.4597 102.473 44.4568 103.222 45.476L105.64 43.6996C104.543 42.2072 102.433 40.5286 99.827 40.3847C97.0484 40.2312 94.2833 41.8355 92.0503 45.7969L94.6637 47.27ZM103.222 45.476C103.429 45.7571 103.632 46.3481 103.653 47.2361C103.673 48.0895 103.519 49.0479 103.201 49.9102C102.88 50.7836 102.432 51.4496 101.949 51.8382C101.511 52.1899 101.025 52.3406 100.396 52.2053L99.7654 55.1384C101.351 55.4791 102.747 55.0461 103.828 54.1762C104.865 53.3432 105.574 52.1497 106.017 50.9471C106.464 49.7333 106.682 48.3992 106.652 47.1651C106.624 45.9657 106.356 44.6744 105.64 43.6996L103.222 45.476Z" fill="#A989BB"/>
<path d="M34.5536 50.6481C39.944 44.2284 47.6333 42.6235 50.8041 42.6235L59.9203 35L71.0182 39.4136L73 59.4753L71.4146 100H64.2802L51.2005 80.3395L50.4078 78.3333H57.5422L64.2802 83.5494C62.3777 76.1667 55.0319 70.8436 51.5969 69.1049L55.164 49.8457C53.2615 50.8086 50.1436 52.9218 48.8224 53.858C36.9317 64.2901 30.9864 63.8889 29.7973 63.0864C28.6083 62.284 27.8156 58.6728 34.5536 50.6481Z" fill="#A989BB"/>
<circle cx="55.5" cy="31.5" r="12" fill="white" stroke="#A989BB" stroke-width="3"/>
<path d="M61.8125 14.4101C66.8125 17.0909 75.3542 19.4365 79 20.2743C74.3125 24.8818 65.7188 22.7874 61.8125 20.2743C58.6875 18.2637 55.3021 17.7611 54 17.7611C56.1875 13.4049 60.1198 13.712 61.8125 14.4101Z" fill="#6D438F"/>
<circle cx="75.5" cy="47.5" r="12" fill="white" stroke="#A989BB" stroke-width="3"/>
<path d="M81.9522 38.2C79.446 31.8 82.4744 26.7333 84.3018 25C84.3018 27.4 85.8683 33 89.7843 40.6C92.9171 46.68 89.2622 51.4 87.0431 53C85.0851 41.8 85.0851 46.2 81.9522 38.2Z" fill="#6D438F"/>
<ellipse cx="58" cy="34.5" rx="5" ry="4.5" fill="#7F4D94"/>
<circle cx="71.5" cy="45.5" r="4.5" fill="#7F4D94"/>
<path d="M80 94L71.3934 99.3061H63.6066L55 94V112.776L64.4262 106.653H70.1639L80 114V94Z" fill="#98364D"/>
<line x1="71.334" y1="101.332" x2="70.5371" y2="106.113" stroke="black"/>
<line x1="64.1592" y1="101.152" x2="64.9561" y2="105.136" stroke="black"/>
</svg>
