<svg width="128" height="128" viewBox="0 0 128 128" fill="none" xmlns="http://www.w3.org/2000/svg">
<path d="M82.0102 97.3948C74.6923 100.721 60.9435 97.1176 54.9839 94.9C55.8155 96.979 60.3892 108.205 69.9523 109.868C77.6028 111.199 81.1786 102.107 82.0102 97.3948Z" fill="#0591CE"/>
<path d="M77.4365 102.384C74.7755 104.047 62.1909 100.998 56.647 99.0579L54.9839 94.9C67.8734 99.4737 77.4365 99.0579 80.7628 97.8106C80.7628 99.4737 78.4067 101.691 77.4365 102.384Z" fill="white"/>
<path d="M79.0996 70.7843C82.9356 59.9737 91.9891 57.8948 96.147 57.8948C98.2259 59.1421 103.34 67.4579 102.384 77.0211C101.137 89.4948 91.5734 92.4053 86.9996 91.5737C82.9088 90.83 74.526 83.6738 79.0996 70.7843Z" fill="white"/>
<path d="M46.5341 73.4836C46.411 62.0134 54.1941 56.9427 58.0975 55.5103C60.4789 55.9651 68.1449 62.01 70.5417 71.3172C73.6679 83.457 65.6928 89.4839 61.1126 90.2789C57.016 90.99 46.681 87.1597 46.5341 73.4836Z" fill="white"/>
<path d="M66.2102 60.3895C56.5639 63.3832 40.8471 57.7562 34.1944 54.5684C32.5313 70.8674 37.6593 87.9702 40.4313 94.4843C38.7681 94.4843 34.1944 90.3264 32.1155 88.2474C32.7807 93.2369 36.5506 99.1965 38.3523 101.553C16.066 88.9127 12.9892 33.9176 14.2365 8C24.5481 14.9853 34.1944 16.7316 40.4313 16.7316C72.4471 12.9895 85.3366 19.624 91.9892 23.3842C111.116 34.1947 114.442 63.8544 112.779 77.0211C102.134 58.7263 73.1401 55.2614 59.9734 55.8158L66.2102 60.3895Z" fill="#0591CE"/>
<circle cx="59.9734" cy="79.1" r="7.48421" fill="#0591CE"/>
<circle cx="89.9102" cy="79.1" r="7.48421" fill="#0591CE"/>
</svg>
