<svg width="128" height="128" viewBox="0 0 128 128" fill="none" xmlns="http://www.w3.org/2000/svg">
<path d="M30.2615 53.9154C29.32 56.4261 18.3615 72.2231 13 79.8077C17.5769 84.6461 27.8292 95.1861 32.2231 98.6384C37.7154 102.954 52.2308 112.369 80.4769 107.269C101.283 103.513 112.254 88.0461 115 79.8077C110.92 82.3184 102.838 82.6846 99.3077 82.5538C108.723 66.0769 108.723 63.3308 107.154 49.6C105.585 35.8692 98.1308 25.2769 96.9538 25.6692C95.7769 26.0615 88.3231 30.3769 78.1231 30.7692C67.9231 31.1615 56.1538 35.4769 51.8385 36.6538C47.5231 37.8308 36.5385 44.8923 34.9692 51.9538C33.7138 57.6031 30.2615 61.3692 28.6923 62.5461C30.8892 59.7215 30.6538 55.6154 30.2615 53.9154Z" fill="#5DAADE"/>
<path d="M91.4615 46.3923C89.2646 38.86 82.4385 36.9769 78.1231 38.1538C77.3385 38.3678 71.846 40.9 71.8461 49.923C71.8463 58.9461 79.6923 61.3 83.6154 61.3C87.5384 61.3 94.2077 55.8076 91.4615 46.3923Z" fill="white"/>
<path d="M57.7988 51.8194C56.5202 44.0781 49.9689 41.3907 45.5435 42.042C44.739 42.1604 38.9826 44.0163 37.9016 52.9744C36.8206 61.9325 44.3281 65.2095 48.2229 65.6795C52.1177 66.1496 59.397 61.4959 57.7988 51.8194Z" fill="white"/>
<circle cx="90.2846" cy="43.7154" r="23.1462" stroke="#1E4B8F" stroke-width="3.13846"/>
<circle cx="37.7154" cy="49.9923" r="23.1462" stroke="#1E4B8F" stroke-width="3.13846"/>
<rect x="60.8615" y="45.6769" width="6.27692" height="3.13846" fill="#1E4B8F"/>
<circle cx="50.2692" cy="53.9154" r="6.66923" fill="#2D57A9"/>
<circle cx="80.0846" cy="49.9923" r="6.66923" fill="#2D57A9"/>
<path d="M73.8077 78.6308C72.3692 77.7154 68.6292 76.9046 65.1769 80.9846C66.4846 78.6308 70.0416 74.8646 73.8077 78.6308Z" fill="#2D57A9"/>
<path d="M89.1077 35.4769C88.7939 32.6523 83.2231 30.9 80.4769 30.3769L76.9462 29.5923C77.0769 30.2462 78.1231 31.6323 81.2616 31.9462C84.4 32.26 87.8 34.4308 89.1077 35.4769Z" fill="#2D57A9"/>
</svg>
