<svg width="128" height="128" viewBox="0 0 128 128" fill="none" xmlns="http://www.w3.org/2000/svg">
<path d="M65.9891 50.6047C65.9891 33.434 79.3112 27.1676 85.9723 26.1808C98.5543 24.7006 109.656 33.582 112.617 52.0849C115.577 70.5879 100.775 80.9495 89.6728 82.4298C78.5711 83.91 65.9891 72.0681 65.9891 50.6047Z" fill="white"/>
<path d="M68.9496 50.6047C67.7654 38.7628 76.3508 33.582 83.0118 33.582C86.3909 33.582 97.8141 35.8024 100.775 48.3844C103.735 60.9664 92.6333 69.1077 86.7124 69.8478C80.7914 70.5879 70.4298 65.4071 68.9496 50.6047Z" fill="#F06EAA"/>
<path d="M73.3902 52.0849C72.206 42.6114 79.3112 39.7496 83.0118 39.5029C85.2322 39.5029 90.413 40.9832 94.1136 49.8646C97.8142 58.746 90.413 63.1867 86.7124 63.9268C85.2609 64.2171 74.8705 63.9268 73.3902 52.0849Z" fill="black"/>
<path d="M17.8418 44.6226C22.5938 28.1225 37.1298 25.7878 43.8038 26.683C56.304 28.7426 64.5143 40.3495 62.2385 58.9491C59.9626 77.5487 42.8709 83.4091 31.793 81.7591C20.7152 80.1091 11.9019 65.2477 17.8418 44.6226Z" fill="white"/>
<circle cx="91.1531" cy="43.9437" r="3.70059" fill="white"/>
<circle cx="92.6333" cy="49.8646" r="2.22035" fill="white"/>
<path d="M79.3112 52.085L80.7105 55.8665L84.492 57.2658L80.7105 58.6651L79.3112 62.4466L77.9119 58.6651L74.1304 57.2658L77.9119 55.8665L79.3112 52.085Z" fill="white"/>
<path d="M29.5427 42.975C34.7181 32.2583 44.7454 32.3246 50.4256 35.8038C53.3071 37.5688 61.8885 45.4288 57.8412 57.7044C53.7939 69.98 40.0746 71.1238 34.6389 68.6623C29.2032 66.2008 23.0734 56.3708 29.5427 42.975Z" fill="#F06EAA"/>
<path d="M32.5562 46.5567C36.4946 37.8596 44.0483 39.1304 47.3328 40.8529C49.2263 42.0126 52.8711 45.9809 51.3878 55.4875C49.9045 64.994 41.2737 64.915 37.7315 63.6132C36.3421 63.1027 27.6333 57.428 32.5562 46.5567Z" fill="black"/>
<circle cx="51.9559" cy="48.8921" r="3.70059" transform="rotate(31.488 51.9559 48.8921)" fill="white"/>
<circle cx="50.1256" cy="54.7143" r="2.22035" transform="rotate(31.488 50.1256 54.7143)" fill="white"/>
<path d="M37.6055 49.6493L36.8236 53.6049L39.3174 56.7733L35.3618 55.9914L32.1934 58.4852L32.9753 54.5296L30.4815 51.3612L34.4371 52.1431L37.6055 49.6493Z" fill="white"/>
<ellipse cx="65.9891" cy="98.7123" rx="5.18082" ry="8.1413" fill="black"/>
<path d="M68 109.5C69.3333 109.333 72.1 108.3 72.5 105.5C73 106.833 72.8 109.5 68 109.5Z" fill="black"/>
</svg>
