<svg width="384" height="384" viewBox="0 0 384 384" fill="none" xmlns="http://www.w3.org/2000/svg">
<g clip-path="url(#clip0_19_8)">
<rect width="384" height="384" fill="white"/>
<rect width="128" height="128" transform="translate(0 128)" fill="#FBC330"/>
<path d="M82.0102 225.395C74.6923 228.721 60.9435 225.118 54.9839 222.9C55.8155 224.979 60.3892 236.205 69.9523 237.868C77.6028 239.199 81.1786 230.107 82.0102 225.395Z" fill="#0591CE"/>
<path d="M77.4365 230.384C74.7755 232.047 62.1909 228.998 56.647 227.058L54.9839 222.9C67.8734 227.474 77.4365 227.058 80.7628 225.811C80.7628 227.474 78.4067 229.691 77.4365 230.384Z" fill="white"/>
<path d="M79.0996 198.784C82.9356 187.974 91.9891 185.895 96.147 185.895C98.2259 187.142 103.34 195.458 102.384 205.021C101.137 217.495 91.5734 220.405 86.9996 219.574C82.9088 218.83 74.526 211.674 79.0996 198.784Z" fill="white"/>
<path d="M46.5341 201.484C46.411 190.013 54.1941 184.943 58.0975 183.51C60.4789 183.965 68.1449 190.01 70.5417 199.317C73.6679 211.457 65.6928 217.484 61.1126 218.279C57.016 218.99 46.681 215.16 46.5341 201.484Z" fill="white"/>
<path d="M66.2102 188.39C56.5639 191.383 40.8471 185.756 34.1944 182.568C32.5313 198.867 37.6593 215.97 40.4313 222.484C38.7681 222.484 34.1944 218.326 32.1155 216.247C32.7807 221.237 36.5506 227.197 38.3523 229.553C16.066 216.913 12.9892 161.918 14.2365 136C24.5481 142.985 34.1944 144.732 40.4313 144.732C72.4471 140.989 85.3366 147.624 91.9892 151.384C111.116 162.195 114.442 191.854 112.779 205.021C102.134 186.726 73.1401 183.261 59.9734 183.816L66.2102 188.39Z" fill="#0591CE"/>
<circle cx="59.9734" cy="207.1" r="7.48421" fill="#0591CE"/>
<circle cx="89.9102" cy="207.1" r="7.48421" fill="#0591CE"/>
<rect width="128" height="128" fill="#4E2C78"/>
<path d="M34.5536 50.6481C39.944 44.2284 47.6333 42.6235 50.8041 42.6235L59.9203 35L71.0182 39.4136L73 59.4753L71.4146 100H64.2802L51.2005 80.3395L50.4078 78.3333H57.5422L64.2802 83.5494C62.3777 76.1667 55.0319 70.8436 51.5969 69.1049L55.164 49.8457C53.2615 50.8086 50.1436 52.9218 48.8224 53.858C36.9317 64.2901 30.9864 63.8889 29.7973 63.0864C28.6083 62.284 27.8156 58.6728 34.5536 50.6481Z" fill="#A989BB"/>
<path d="M109.968 46.5335L111.466 46.6125L109.968 46.5335ZM93.357 46.5335L94.6637 47.27L93.357 46.5335ZM100.396 52.2053C99.5857 52.0313 98.788 52.5468 98.614 53.3568C98.4399 54.1667 98.9554 54.9644 99.7654 55.1384L100.396 52.2053ZM73.3188 36.1441C74.9002 33.2262 77.8948 28.9865 81.6756 25.8108C85.4775 22.6176 89.7986 20.7163 94.1788 21.8144L94.9082 18.9044C89.1636 17.4643 83.8609 20.0576 79.7462 23.5136C75.6104 26.9873 72.3956 31.5516 70.6812 34.7146L73.3188 36.1441ZM94.1788 21.8144C99.9127 23.2517 103.572 27.4852 105.78 32.4355C107.996 37.4039 108.657 42.914 108.47 46.4545L111.466 46.6125C111.675 42.6552 110.951 36.6645 108.52 31.2135C106.081 25.7443 101.83 20.6396 94.9082 18.9044L94.1788 21.8144ZM108.47 46.4545C108.245 50.7288 107.753 54.3048 106.485 56.7912C105.869 57.9997 105.092 58.9013 104.109 59.5104C103.127 60.119 101.834 60.5 100.08 60.5V63.5C102.282 63.5 104.146 63.0163 105.689 62.0607C107.231 61.1056 108.347 59.7435 109.158 58.154C110.743 55.0444 111.24 50.8871 111.466 46.6125L108.47 46.4545ZM100.08 60.5C98.5031 60.5 95.9719 59.2519 94.4153 56.8673C92.9494 54.6216 92.3607 51.3557 94.6637 47.27L92.0503 45.7969C89.2118 50.8325 89.8096 55.2999 91.9032 58.5071C93.9061 61.5755 97.3074 63.5 100.08 63.5V60.5ZM94.6637 47.27C96.5439 43.9344 98.393 43.31 99.6616 43.3801C101.103 43.4597 102.473 44.4568 103.222 45.476L105.64 43.6996C104.543 42.2072 102.433 40.5286 99.827 40.3847C97.0484 40.2312 94.2833 41.8355 92.0503 45.7969L94.6637 47.27ZM103.222 45.476C103.429 45.7571 103.632 46.3481 103.653 47.2362C103.673 48.0895 103.519 49.0479 103.201 49.9102C102.88 50.7836 102.432 51.4496 101.949 51.8382C101.511 52.1899 101.025 52.3406 100.396 52.2053L99.7654 55.1384C101.351 55.4791 102.747 55.0461 103.828 54.1762C104.865 53.3432 105.574 52.1497 106.017 50.9471C106.464 49.7333 106.682 48.3992 106.652 47.1651C106.624 45.9657 106.356 44.6744 105.64 43.6996L103.222 45.476Z" fill="#A989BB"/>
<circle cx="55.5" cy="31.5" r="12" fill="white" stroke="#A989BB" stroke-width="3"/>
<path d="M61.8125 14.4101C66.8125 17.0909 75.3542 19.4365 79 20.2743C74.3125 24.8818 65.7188 22.7874 61.8125 20.2743C58.6875 18.2637 55.3021 17.7611 54 17.7611C56.1875 13.4049 60.1198 13.712 61.8125 14.4101Z" fill="#6D438F"/>
<circle cx="75.5" cy="47.5" r="12" fill="white" stroke="#A989BB" stroke-width="3"/>
<path d="M81.9522 38.2C79.446 31.8 82.4744 26.7333 84.3018 25C84.3018 27.4 85.8683 33 89.7843 40.6C92.9171 46.68 89.2622 51.4 87.0431 53C85.0851 41.8 85.0851 46.2 81.9522 38.2Z" fill="#6D438F"/>
<ellipse cx="58" cy="34.5" rx="5" ry="4.5" fill="#7F4D94"/>
<circle cx="71.5" cy="45.5" r="4.5" fill="#7F4D94"/>
<path d="M80 94L71.3934 99.3061H63.6066L55 94V112.776L64.4262 106.653H70.1639L80 114V94Z" fill="#98364D"/>
<line x1="71.334" y1="101.332" x2="70.5371" y2="106.113" stroke="black"/>
<line x1="64.1592" y1="101.152" x2="64.9561" y2="105.136" stroke="black"/>
<rect width="128" height="128" transform="translate(128 256)" fill="#4E2C78"/>
<path d="M162.554 306.648C167.944 300.228 175.633 298.623 178.804 298.623L187.92 291L199.018 295.414L201 315.475L199.415 356H192.28L179.201 336.34L178.408 334.333H185.542L192.28 339.549C190.378 332.167 183.032 326.844 179.597 325.105L183.164 305.846C181.262 306.809 178.144 308.922 176.822 309.858C164.932 320.29 158.986 319.889 157.797 319.086C156.608 318.284 155.816 314.673 162.554 306.648Z" fill="#A989BB"/>
<path d="M237.968 302.533L239.466 302.612L237.968 302.533ZM221.357 302.533L222.664 303.27L221.357 302.533ZM228.396 308.205C227.586 308.031 226.788 308.547 226.614 309.357C226.44 310.167 226.955 310.964 227.765 311.138L228.396 308.205ZM201.319 292.144C202.9 289.226 205.895 284.986 209.676 281.811C213.477 278.618 217.799 276.716 222.179 277.814L222.908 274.904C217.164 273.464 211.861 276.058 207.746 279.514C203.61 282.987 200.396 287.552 198.681 290.715L201.319 292.144ZM222.179 277.814C227.913 279.252 231.572 283.485 233.78 288.435C235.996 293.404 236.657 298.914 236.47 302.454L239.466 302.612C239.675 298.655 238.951 292.665 236.52 287.214C234.081 281.744 229.83 276.64 222.908 274.904L222.179 277.814ZM236.47 302.454C236.245 306.729 235.753 310.305 234.485 312.791C233.869 314 233.092 314.901 232.109 315.51C231.127 316.119 229.834 316.5 228.08 316.5V319.5C230.282 319.5 232.146 319.016 233.689 318.061C235.231 317.106 236.347 315.743 237.158 314.154C238.743 311.044 239.24 306.887 239.466 302.612L236.47 302.454ZM228.08 316.5C226.503 316.5 223.972 315.252 222.415 312.867C220.949 310.622 220.361 307.356 222.664 303.27L220.05 301.797C217.212 306.833 217.81 311.3 219.903 314.507C221.906 317.575 225.307 319.5 228.08 319.5V316.5ZM222.664 303.27C224.544 299.934 226.393 299.31 227.662 299.38C229.103 299.46 230.473 300.457 231.222 301.476L233.64 299.7C232.543 298.207 230.433 296.529 227.827 296.385C225.048 296.231 222.283 297.835 220.05 301.797L222.664 303.27ZM231.222 301.476C231.429 301.757 231.632 302.348 231.653 303.236C231.673 304.09 231.519 305.048 231.201 305.91C230.88 306.784 230.432 307.45 229.949 307.838C229.511 308.19 229.025 308.341 228.396 308.205L227.765 311.138C229.351 311.479 230.747 311.046 231.828 310.176C232.865 309.343 233.574 308.15 234.017 306.947C234.464 305.733 234.682 304.399 234.652 303.165C234.624 301.966 234.356 300.674 233.64 299.7L231.222 301.476Z" fill="#A989BB"/>
<circle cx="183.5" cy="287.5" r="12" fill="white" stroke="#A989BB" stroke-width="3"/>
<path d="M189.812 270.41C194.812 273.091 203.354 275.437 207 276.274C202.312 280.882 193.719 278.787 189.812 276.274C186.688 274.264 183.302 273.761 182 273.761C184.188 269.405 188.12 269.712 189.812 270.41Z" fill="#6D438F"/>
<circle cx="203.5" cy="303.5" r="12" fill="white" stroke="#A989BB" stroke-width="3"/>
<path d="M209.952 294.2C207.446 287.8 210.474 282.733 212.302 281C212.302 283.4 213.868 289 217.784 296.6C220.917 302.68 217.262 307.4 215.043 309C213.085 297.8 213.085 302.2 209.952 294.2Z" fill="#6D438F"/>
<ellipse cx="186" cy="290.5" rx="5" ry="4.5" fill="#7F4D94"/>
<circle cx="199.5" cy="301.5" r="4.5" fill="#7F4D94"/>
<path d="M208 350L199.393 355.306H191.607L183 350V368.776L192.426 362.653H198.164L208 370V350Z" fill="#98364D"/>
<line x1="199.334" y1="357.332" x2="198.537" y2="362.113" stroke="black"/>
<line x1="192.159" y1="357.152" x2="192.956" y2="361.136" stroke="black"/>
<rect width="128" height="128" transform="translate(128)" fill="#2D57A9"/>
<path d="M158.262 53.9154C157.32 56.4262 146.362 72.2231 141 79.8077C145.577 84.6462 155.829 95.1862 160.223 98.6385C165.715 102.954 180.231 112.369 208.477 107.269C229.283 103.513 240.254 88.0462 243 79.8077C238.92 82.3185 230.838 82.6846 227.308 82.5539C236.723 66.0769 236.723 63.3308 235.154 49.6C233.585 35.8692 226.131 25.2769 224.954 25.6692C223.777 26.0616 216.323 30.3769 206.123 30.7692C195.923 31.1616 184.154 35.4769 179.838 36.6539C175.523 37.8308 164.538 44.8923 162.969 51.9539C161.714 57.6031 158.262 61.3692 156.692 62.5462C158.889 59.7216 158.654 55.6154 158.262 53.9154Z" fill="#5DAADE"/>
<path d="M219.462 46.3923C217.265 38.86 210.439 36.9769 206.123 38.1538C205.339 38.3678 199.846 40.9 199.846 49.9231C199.846 58.9461 207.692 61.3 211.615 61.3C215.538 61.3 222.208 55.8077 219.462 46.3923Z" fill="white"/>
<path d="M185.799 51.8194C184.52 44.0781 177.969 41.3907 173.544 42.042C172.739 42.1604 166.983 44.0163 165.902 52.9744C164.821 61.9325 172.328 65.2095 176.223 65.6795C180.118 66.1496 187.397 61.4959 185.799 51.8194Z" fill="white"/>
<circle cx="218.285" cy="43.7154" r="23.1462" stroke="#1E4B8F" stroke-width="3.13846"/>
<circle cx="165.715" cy="49.9923" r="23.1462" stroke="#1E4B8F" stroke-width="3.13846"/>
<rect x="188.862" y="45.6769" width="6.27692" height="3.13846" fill="#1E4B8F"/>
<circle cx="178.269" cy="53.9154" r="6.66923" fill="#2D57A9"/>
<circle cx="208.085" cy="49.9924" r="6.66923" fill="#2D57A9"/>
<path d="M201.808 78.6308C200.369 77.7154 196.629 76.9047 193.177 80.9847C194.485 78.6308 198.042 74.8647 201.808 78.6308Z" fill="#2D57A9"/>
<path d="M217.108 35.4769C216.794 32.6523 211.223 30.9 208.477 30.3769L204.946 29.5923C205.077 30.2461 206.123 31.6323 209.262 31.9461C212.4 32.26 215.8 34.4307 217.108 35.4769Z" fill="#2D57A9"/>
<rect width="128" height="128" transform="translate(128 128)" fill="#006C3A"/>
<path d="M209.803 221.244C206.402 220.935 200.916 223.176 198.597 224.336L200.529 230.518C202.461 232.965 208.025 238.478 214.826 240.951C221.627 243.424 224.873 240.951 225.645 239.405C223.172 239.096 221.008 236.443 220.236 235.155C230.437 237.628 235.821 231.806 237.237 228.586H231.055C225.259 229.359 214.053 221.631 209.803 221.244Z" fill="#F35BA4"/>
<path d="M180.823 232.064L184.3 218.926L200.529 217.38L202.848 232.064H180.823Z" fill="#F35BA4"/>
<path d="M194.347 221.244C158.179 223.717 148.107 193.423 147.592 177.967C162.275 171.398 196.047 157.256 213.667 153.238C231.287 149.219 235.949 155.942 236.078 159.806C240.406 212.975 210.06 222.919 194.347 221.244Z" fill="#A0D06D"/>
<path d="M202.461 201.538C197.515 199.683 191.384 203.083 188.937 205.015C187.701 198.524 192.286 195.871 194.733 195.355C199.37 194.737 201.817 199.219 202.461 201.538Z" fill="black" stroke="#A36E76" stroke-width="0.386402"/>
<path d="M200.143 197.64C197.052 200.765 191.9 200.917 189.323 200.379C190.096 198.06 190.856 196.794 194.347 195.621C197.189 194.666 199.37 196.515 200.143 197.64Z" fill="white"/>
<path d="M173.867 167.921C178.891 172.558 183.527 173.717 185.459 173.717V176.035H183.141C175.799 174.876 170.003 166.762 166.526 165.602C162.591 164.291 158.54 166.375 156.866 167.921C157.381 167.148 158.798 165.293 160.343 164.057C162.275 162.511 167.831 162.349 173.867 167.921Z" fill="#0A4438"/>
<path d="M204.393 186.468C208.515 184.021 218.149 179.977 223.713 183.377C222.039 178.998 215.831 173.485 204.393 186.468Z" fill="#0A4438"/>
<path d="M234.146 170.239C230.437 176.422 224.1 179.513 221.395 180.286L222.168 180.672C239.169 173.717 240.715 164.443 239.556 163.284C238.397 162.125 238.783 162.511 234.146 170.239Z" fill="#0A4438"/>
<path d="M239.386 172.694C234.332 178.632 226.072 181.314 222.573 181.912L223.543 182.348C245.638 176.489 248.078 167.326 246.654 166.094C245.229 164.862 245.704 165.273 239.386 172.694Z" fill="#0A4438"/>
<path d="M208.257 174.876C202.693 175.494 200.014 174.619 199.37 174.103C199.37 175.34 200.658 176.164 201.302 176.422C204.522 177.066 211.737 176.884 216.758 174.876C222.554 172.558 226.16 172.171 227.964 172.558C227.706 172.171 226.804 170.626 224.486 170.626C221.673 170.626 215.212 174.103 208.257 174.876Z" fill="#0A4438"/>
<path d="M181.982 185.309C181.364 193.655 175.027 194.969 171.935 194.583C166.139 194.583 159.571 192.651 158.411 184.15C157.484 177.349 164.594 173.331 168.844 173.331C173.867 173.331 182.6 176.963 181.982 185.309Z" fill="white"/>
<path d="M168.458 173.717C162.552 173.717 159.055 179.384 158.025 182.604C158.411 179.255 161.271 172.635 169.617 172.944C177.963 173.253 181.209 178.869 181.595 181.445C179.277 176.808 175.799 173.717 168.458 173.717Z" fill="#0A4438"/>
<circle cx="171.163" cy="184.923" r="7.34164" fill="#044937"/>
<path d="M147.205 168.307C149.524 171.399 157.123 175.005 161.502 176.035L160.729 176.808C146.433 172.558 147.205 171.399 145.273 169.853C143.993 168.829 142.135 164.33 142.955 164.057C144.114 163.67 145.293 165.758 147.205 168.307Z" fill="#044937"/>
<path d="M141.505 170.919C144.372 174.465 153.769 178.603 159.184 179.785L158.229 180.672C140.55 175.795 141.506 174.465 139.117 172.692C137.534 171.517 135.236 166.355 136.25 166.042C137.683 165.599 139.141 167.994 141.505 170.919Z" fill="#044937"/>
<rect width="128" height="128" transform="translate(256)" fill="#EF1923"/>
<path d="M296.5 71L322 70C326.4 69.6616 335 67.359 338 67C358 64.6068 365.667 77.8334 366.5 85.5C358.167 86 341.5 84.5 332 85.5C324.348 86.3055 290.333 86 275 87C279.8 75.4 291.333 71.5 296.5 71Z" fill="#711023" stroke="#711023"/>
<path d="M344.5 65C328.5 65.8 323.5 54.3333 323 48.5H322L369 41.5C367.5 49 360.5 64.2 344.5 65Z" fill="white"/>
<path d="M344.17 58.4206C332.61 60.2855 329.84 51.4132 329.899 46.7439L350.337 43.7757C353.383 54.5088 347.495 58.0111 344.17 58.4206Z" fill="#731527"/>
<path d="M294.5 65C309.3 67 315.333 54.8333 316.5 48.5L271 43.5C271.5 48.5 276 62.5 294.5 65Z" fill="white"/>
<path d="M295.658 59.3902C284.008 58.2142 283.616 48.9277 284.877 44.4315L305.389 46.828C305.568 57.9837 298.976 59.851 295.658 59.3902Z" fill="#731527"/>
<path d="M321 47.5L264 42.5L321 49.5L370.5 41L321 47.5Z" fill="#7F0512" stroke="#7F0512"/>
<path d="M350 76.7429L353 68.7429C347 64.7429 330.5 68.7429 326 69.7429C321.5 70.7429 302.5 71.7429 296 71.2429C290.8 70.8429 285.167 74.7429 283 76.7429L284.5 78.2429H292.5L288 87.2429L353 85.2429L350 76.7429Z" fill="white"/>
<path d="M333 76H354.532L356 78L333 76Z" fill="#731527" stroke="#731527" stroke-width="0.3"/>
<rect width="128" height="128" transform="translate(256 256)" fill="#EF1923"/>
<path d="M296.5 327L322 326C326.4 325.661 335 323.359 338 323C358 320.607 365.667 333.833 366.5 341.5C358.167 342 341.5 340.5 332 341.5C324.348 342.305 290.333 342 275 343C279.8 331.4 291.333 327.5 296.5 327Z" fill="#711023" stroke="#711023"/>
<path d="M344.5 321C328.5 321.8 323.5 310.333 323 304.5H322L369 297.5C367.5 305 360.5 320.2 344.5 321Z" fill="white"/>
<path d="M344.17 314.421C332.61 316.285 329.84 307.413 329.899 302.744L350.337 299.776C353.383 310.509 347.495 314.011 344.17 314.421Z" fill="#731527"/>
<path d="M294.5 321C309.3 323 315.333 310.833 316.5 304.5L271 299.5C271.5 304.5 276 318.5 294.5 321Z" fill="white"/>
<path d="M295.658 315.39C284.008 314.214 283.616 304.928 284.877 300.431L305.389 302.828C305.568 313.984 298.976 315.851 295.658 315.39Z" fill="#731527"/>
<path d="M321 303.5L264 298.5L321 305.5L370.5 297L321 303.5Z" fill="#7F0512" stroke="#7F0512"/>
<path d="M350 332.743L353 324.743C347 320.743 330.5 324.743 326 325.743C321.5 326.743 302.5 327.743 296 327.243C290.8 326.843 285.167 330.743 283 332.743L284.5 334.243H292.5L288 343.243L353 341.243L350 332.743Z" fill="white"/>
<path d="M333 332H354.532L356 334L333 332Z" fill="#731527" stroke="#731527" stroke-width="0.3"/>
<rect width="128" height="128" transform="translate(256 128)" fill="#767CA9"/>
<path d="M282.089 256C284.704 239.567 282.452 214.208 281 203.583L288.08 182.333L328.384 171L342 194.375V239.708V256H282.089Z" fill="#151C44"/>
<path d="M306.5 161.254C305.3 157.654 299.667 157.754 297 158.254L295 163.754C299.333 164.42 307.7 164.854 306.5 161.254Z" fill="#151C44"/>
<path d="M354.011 211C353.651 209 362.556 204.167 367.053 202C369.212 202 368.75 213.167 369.5 215.5L358 218.5C357.85 216.667 354.37 213 354.011 211Z" fill="#192352"/>
<path d="M293 161.5L295 202.5C308.5 208.5 307 202.5 330 199C348.4 196.2 356.333 207.167 358 213C360.8 213 364.167 208.333 365.5 206C355.5 162 313 158 293 161.5Z" fill="#4F517C"/>
<path d="M322.5 226.5C320.5 226.9 309 202.333 303.5 190C304 190 316 181 321 182.5L325.5 223.5C325.333 224.333 325 226 322.5 226.5Z" fill="#4F517C" stroke="#313257"/>
<path d="M297.628 183.355C297.128 177.855 296.428 166.455 297.628 164.855C300.461 167.855 304.428 175.755 297.628 183.355Z" fill="white"/>
<path d="M299.6 202.5C299.147 198.338 298.513 189.711 299.6 188.5C302.166 190.77 305.758 196.749 299.6 202.5Z" fill="white"/>
<path d="M300.412 160.016C299.565 161.226 295.824 162.2 294.059 162.536L295.647 202.856L302 221C297.765 218.144 288.129 211.525 283.471 207.896C278.812 204.267 275.882 197.648 275 194.792V174.632C278.388 162.939 292.324 158.672 298.5 158C299.735 158.168 301.259 158.806 300.412 160.016Z" fill="#151C44"/>
<rect x="303" y="180" width="22" height="11" fill="#4F517C"/>
<path d="M295.667 179L295 172C295.667 172 299 172.636 299 175.182C299 177.218 296.778 178.576 295.667 179Z" fill="#8196C2"/>
<path d="M296.333 178L296 174C296.333 174 298 174.364 298 175.818C298 176.982 296.889 177.758 296.333 178Z" fill="#151C44"/>
<path d="M345.976 198.399C343.551 195.99 344.794 192.474 347.75 189.733C348.749 188.552 351.695 187.511 353.561 189.249C355.426 190.987 350.897 192.396 349.451 194.668C348.005 196.939 348.133 200.542 345.976 198.399Z" fill="black"/>
<rect x="295" y="171" width="2" height="8" fill="#4F517C"/>
<path d="M297.667 200L297 193C297.667 193 301 193.636 301 196.182C301 198.218 298.778 199.576 297.667 200Z" fill="#8196C2"/>
<path d="M298.333 199L298 195C298.333 195 300 195.364 300 196.818C300 197.982 298.889 198.758 298.333 199Z" fill="#151C44"/>
<rect x="297" y="192" width="2" height="8" fill="#4F517C"/>
<rect width="128" height="128" transform="translate(0 256)" fill="#F06EAA"/>
<path d="M65.9891 306.605C65.9891 289.434 79.3112 283.168 85.9723 282.181C98.5543 280.701 109.656 289.582 112.617 308.085C115.577 326.588 100.775 336.95 89.6728 338.43C78.5711 339.91 65.9891 328.068 65.9891 306.605Z" fill="white"/>
<path d="M68.9496 306.605C67.7654 294.763 76.3508 289.582 83.0118 289.582C86.3909 289.582 97.8141 291.802 100.775 304.384C103.735 316.966 92.6333 325.108 86.7124 325.848C80.7914 326.588 70.4298 321.407 68.9496 306.605Z" fill="#F06EAA"/>
<path d="M73.3902 308.085C72.206 298.611 79.3112 295.75 83.0118 295.503C85.2322 295.503 90.413 296.983 94.1136 305.865C97.8142 314.746 90.413 319.187 86.7124 319.927C85.2609 320.217 74.8705 319.927 73.3902 308.085Z" fill="black"/>
<path d="M17.8418 300.623C22.5938 284.123 37.1298 281.788 43.8038 282.683C56.304 284.743 64.5143 296.35 62.2385 314.949C59.9626 333.549 42.8709 339.409 31.793 337.759C20.7152 336.109 11.9019 321.248 17.8418 300.623Z" fill="white"/>
<circle cx="91.1531" cy="299.944" r="3.70059" fill="white"/>
<circle cx="92.6333" cy="305.865" r="2.22035" fill="white"/>
<path d="M79.3112 308.085L80.7105 311.866L84.492 313.266L80.7105 314.665L79.3112 318.447L77.9119 314.665L74.1304 313.266L77.9119 311.866L79.3112 308.085Z" fill="white"/>
<path d="M29.5427 298.975C34.7181 288.258 44.7454 288.325 50.4256 291.804C53.3071 293.569 61.8885 301.429 57.8412 313.704C53.7939 325.98 40.0746 327.124 34.6389 324.662C29.2032 322.201 23.0734 312.371 29.5427 298.975Z" fill="#F06EAA"/>
<path d="M32.5562 302.557C36.4946 293.86 44.0483 295.13 47.3328 296.853C49.2263 298.013 52.8711 301.981 51.3878 311.487C49.9045 320.994 41.2737 320.915 37.7315 319.613C36.3421 319.103 27.6333 313.428 32.5562 302.557Z" fill="black"/>
<circle cx="51.9559" cy="304.892" r="3.70059" transform="rotate(31.488 51.9559 304.892)" fill="white"/>
<circle cx="50.1256" cy="310.714" r="2.22035" transform="rotate(31.488 50.1256 310.714)" fill="white"/>
<path d="M37.6055 305.649L36.8236 309.605L39.3174 312.773L35.3618 311.991L32.1934 314.485L32.9753 310.53L30.4815 307.361L34.4371 308.143L37.6055 305.649Z" fill="white"/>
<ellipse cx="65.9891" cy="354.712" rx="5.18082" ry="8.1413" fill="black"/>
<path d="M68 365.5C69.3333 365.333 72.1 364.3 72.5 361.5C73 362.833 72.8 365.5 68 365.5Z" fill="black"/>
</g>
<defs>
<clipPath id="clip0_19_8">
<rect width="384" height="384" fill="white"/>
</clipPath>
</defs>
</svg>
