<svg version="1.2" xmlns="http://www.w3.org/2000/svg" viewBox="0 0 200 200" width="200" height="200">
	<title>Proyecto nuevo</title>
	<style>
		.s0 { fill: #89c657 } 
		.s1 { fill: #f8df6d } 
		.s2 { fill: #f06eaa } 
		.s3 { fill: #000000 } 
		.s4 { fill: #ffffff;stroke: #ffffff;stroke-miterlimit:100;stroke-width: 3.2 } 
	</style>
	<path id="Forma 1" class="s0" d="m128.4 24.3v50.4h-56.8v-50.4zm0 0v50.4h-56.8v-50.4z"/>
	<path id="Forma 1 copy" class="s1" d="m128.4 75.3v50.4h-56.8v-50.4zm0 0v50.4h-56.8v-50.4z"/>
	<path id="Forma 1 copy 2" class="s2" d="m128.4 126.3v50.4h-56.8v-50.4zm0 0v50.4h-56.8v-50.4z"/>
	<path id="Capa 4" class="s3" d="m121 31v39h-42v-39zm0 49v39h-42v-39zm0 52v39h-42v-39z"/>
	<path id="Capa 5" class="s2" d="m136.5 151c-11.3 0-20.5-9.2-20.5-20.5 0-11.3 9.2-20.5 20.5-20.5 11.3 0 20.5 9.2 20.5 20.5 0 11.3-9.2 20.5-20.5 20.5z"/>
	<path id="Capa 6" class="s4" d="m135.6 119.2h2v22.3h-2z"/>
	<path id="Forma 2" class="s4" d="m137 142.9l-1.4-1.4 8.8-9.1 1.5 1.4z"/>
	<path id="Forma 3" class="s4" d="m136.7 139.7l-1.3 1.5-7.9-7 1.3-1.5z"/>
</svg>